<mxfile host="app.diagrams.net" modified="2022-07-16T07:18:04.565Z" agent="5.0 (Windows NT 10.0; Win64; x64) AppleWebKit/537.36 (KHTML, like Gecko) Chrome/103.0.0.0 Safari/537.36" etag="RXtUHMUpuOdH5bm9PyMH" version="20.1.1" type="github">
  <diagram id="QlQyGuzG0AHTnMumQBLk" name="Page-1">
    <mxGraphModel dx="782" dy="460" grid="1" gridSize="10" guides="1" tooltips="1" connect="1" arrows="1" fold="1" page="1" pageScale="1" pageWidth="850" pageHeight="1100" math="0" shadow="0">
      <root>
        <mxCell id="0" />
        <mxCell id="1" parent="0" />
        <mxCell id="oBg4tUfflhUF-vRY5D5m-6" value="" style="endArrow=classic;html=1;rounded=0;" edge="1" parent="1">
          <mxGeometry width="50" height="50" relative="1" as="geometry">
            <mxPoint x="380" y="340" as="sourcePoint" />
            <mxPoint x="380" y="37.333343505859375" as="targetPoint" />
          </mxGeometry>
        </mxCell>
        <mxCell id="oBg4tUfflhUF-vRY5D5m-7" value="" style="endArrow=classic;html=1;rounded=0;" edge="1" parent="1">
          <mxGeometry width="50" height="50" relative="1" as="geometry">
            <mxPoint x="340" y="310" as="sourcePoint" />
            <mxPoint x="710" y="310" as="targetPoint" />
          </mxGeometry>
        </mxCell>
        <mxCell id="oBg4tUfflhUF-vRY5D5m-9" value="" style="ellipse;whiteSpace=wrap;html=1;aspect=fixed;fillColor=#6a00ff;fontColor=#ffffff;strokeColor=#3700CC;" vertex="1" parent="1">
          <mxGeometry x="425" y="280" width="10" height="10" as="geometry" />
        </mxCell>
        <mxCell id="oBg4tUfflhUF-vRY5D5m-10" value="" style="ellipse;whiteSpace=wrap;html=1;aspect=fixed;fillColor=#6a00ff;fontColor=#ffffff;strokeColor=#3700CC;" vertex="1" parent="1">
          <mxGeometry x="435" y="260" width="10" height="10" as="geometry" />
        </mxCell>
        <mxCell id="oBg4tUfflhUF-vRY5D5m-11" value="" style="ellipse;whiteSpace=wrap;html=1;aspect=fixed;fillColor=#6a00ff;fontColor=#ffffff;strokeColor=#3700CC;" vertex="1" parent="1">
          <mxGeometry x="465" y="250" width="10" height="10" as="geometry" />
        </mxCell>
        <mxCell id="oBg4tUfflhUF-vRY5D5m-12" value="" style="ellipse;whiteSpace=wrap;html=1;aspect=fixed;fillColor=#6a00ff;fontColor=#ffffff;strokeColor=#3700CC;" vertex="1" parent="1">
          <mxGeometry x="445" y="230" width="10" height="10" as="geometry" />
        </mxCell>
        <mxCell id="oBg4tUfflhUF-vRY5D5m-13" value="" style="ellipse;whiteSpace=wrap;html=1;aspect=fixed;fillColor=#6a00ff;fontColor=#ffffff;strokeColor=#3700CC;" vertex="1" parent="1">
          <mxGeometry x="485" y="230" width="10" height="10" as="geometry" />
        </mxCell>
        <mxCell id="oBg4tUfflhUF-vRY5D5m-14" value="" style="ellipse;whiteSpace=wrap;html=1;aspect=fixed;fillColor=#6a00ff;fontColor=#ffffff;strokeColor=#3700CC;" vertex="1" parent="1">
          <mxGeometry x="465" y="210" width="10" height="10" as="geometry" />
        </mxCell>
        <mxCell id="oBg4tUfflhUF-vRY5D5m-15" value="" style="ellipse;whiteSpace=wrap;html=1;aspect=fixed;fillColor=#6a00ff;fontColor=#ffffff;strokeColor=#3700CC;" vertex="1" parent="1">
          <mxGeometry x="420" y="240" width="10" height="10" as="geometry" />
        </mxCell>
        <mxCell id="oBg4tUfflhUF-vRY5D5m-16" value="" style="ellipse;whiteSpace=wrap;html=1;aspect=fixed;fillColor=#6a00ff;fontColor=#ffffff;strokeColor=#3700CC;" vertex="1" parent="1">
          <mxGeometry x="445" y="200" width="10" height="10" as="geometry" />
        </mxCell>
        <mxCell id="oBg4tUfflhUF-vRY5D5m-17" value="" style="ellipse;whiteSpace=wrap;html=1;aspect=fixed;fillColor=#6a00ff;fontColor=#ffffff;strokeColor=#3700CC;" vertex="1" parent="1">
          <mxGeometry x="485" y="270" width="10" height="10" as="geometry" />
        </mxCell>
        <mxCell id="oBg4tUfflhUF-vRY5D5m-20" value="" style="ellipse;whiteSpace=wrap;html=1;aspect=fixed;fillColor=#6a00ff;fontColor=#ffffff;strokeColor=#3700CC;" vertex="1" parent="1">
          <mxGeometry x="475" y="170" width="10" height="10" as="geometry" />
        </mxCell>
        <mxCell id="oBg4tUfflhUF-vRY5D5m-21" value="" style="ellipse;whiteSpace=wrap;html=1;aspect=fixed;fillColor=#6a00ff;fontColor=#ffffff;strokeColor=#3700CC;" vertex="1" parent="1">
          <mxGeometry x="495" y="200" width="10" height="10" as="geometry" />
        </mxCell>
        <mxCell id="oBg4tUfflhUF-vRY5D5m-22" value="" style="ellipse;whiteSpace=wrap;html=1;aspect=fixed;fillColor=#6a00ff;fontColor=#ffffff;strokeColor=#3700CC;" vertex="1" parent="1">
          <mxGeometry x="505" y="220" width="10" height="10" as="geometry" />
        </mxCell>
        <mxCell id="oBg4tUfflhUF-vRY5D5m-23" value="" style="ellipse;whiteSpace=wrap;html=1;aspect=fixed;fillColor=#6a00ff;fontColor=#ffffff;strokeColor=#3700CC;" vertex="1" parent="1">
          <mxGeometry x="495" y="180" width="10" height="10" as="geometry" />
        </mxCell>
        <mxCell id="oBg4tUfflhUF-vRY5D5m-24" value="" style="ellipse;whiteSpace=wrap;html=1;aspect=fixed;fillColor=#6a00ff;fontColor=#ffffff;strokeColor=#3700CC;" vertex="1" parent="1">
          <mxGeometry x="515" y="250" width="10" height="10" as="geometry" />
        </mxCell>
        <mxCell id="oBg4tUfflhUF-vRY5D5m-27" value="" style="ellipse;whiteSpace=wrap;html=1;aspect=fixed;fillColor=#008a00;fontColor=#ffffff;strokeColor=#005700;" vertex="1" parent="1">
          <mxGeometry x="550" y="110" width="10" height="10" as="geometry" />
        </mxCell>
        <mxCell id="oBg4tUfflhUF-vRY5D5m-28" value="" style="ellipse;whiteSpace=wrap;html=1;aspect=fixed;fillColor=#008a00;fontColor=#ffffff;strokeColor=#005700;" vertex="1" parent="1">
          <mxGeometry x="540" y="140" width="10" height="10" as="geometry" />
        </mxCell>
        <mxCell id="oBg4tUfflhUF-vRY5D5m-29" value="" style="ellipse;whiteSpace=wrap;html=1;aspect=fixed;fillColor=#008a00;fontColor=#ffffff;strokeColor=#005700;" vertex="1" parent="1">
          <mxGeometry x="560" y="130" width="10" height="10" as="geometry" />
        </mxCell>
        <mxCell id="oBg4tUfflhUF-vRY5D5m-30" value="" style="ellipse;whiteSpace=wrap;html=1;aspect=fixed;fillColor=#008a00;fontColor=#ffffff;strokeColor=#005700;" vertex="1" parent="1">
          <mxGeometry x="560" y="160" width="10" height="10" as="geometry" />
        </mxCell>
        <mxCell id="oBg4tUfflhUF-vRY5D5m-31" value="" style="ellipse;whiteSpace=wrap;html=1;aspect=fixed;fillColor=#008a00;fontColor=#ffffff;strokeColor=#005700;" vertex="1" parent="1">
          <mxGeometry x="580" y="140" width="10" height="10" as="geometry" />
        </mxCell>
        <mxCell id="oBg4tUfflhUF-vRY5D5m-32" value="" style="ellipse;whiteSpace=wrap;html=1;aspect=fixed;fillColor=#008a00;fontColor=#ffffff;strokeColor=#005700;" vertex="1" parent="1">
          <mxGeometry x="525" y="160" width="10" height="10" as="geometry" />
        </mxCell>
        <mxCell id="oBg4tUfflhUF-vRY5D5m-33" value="" style="ellipse;whiteSpace=wrap;html=1;aspect=fixed;fillColor=#008a00;fontColor=#ffffff;strokeColor=#005700;" vertex="1" parent="1">
          <mxGeometry x="580" y="170" width="10" height="10" as="geometry" />
        </mxCell>
        <mxCell id="oBg4tUfflhUF-vRY5D5m-34" value="" style="ellipse;whiteSpace=wrap;html=1;aspect=fixed;fillColor=#008a00;fontColor=#ffffff;strokeColor=#005700;" vertex="1" parent="1">
          <mxGeometry x="560" y="190" width="10" height="10" as="geometry" />
        </mxCell>
        <mxCell id="oBg4tUfflhUF-vRY5D5m-35" value="" style="ellipse;whiteSpace=wrap;html=1;aspect=fixed;fillColor=#008a00;fontColor=#ffffff;strokeColor=#005700;" vertex="1" parent="1">
          <mxGeometry x="590" y="200" width="10" height="10" as="geometry" />
        </mxCell>
        <mxCell id="oBg4tUfflhUF-vRY5D5m-39" value="" style="ellipse;whiteSpace=wrap;html=1;aspect=fixed;fillColor=#008a00;fontColor=#ffffff;strokeColor=#005700;" vertex="1" parent="1">
          <mxGeometry x="600" y="160" width="10" height="10" as="geometry" />
        </mxCell>
        <mxCell id="oBg4tUfflhUF-vRY5D5m-40" value="" style="ellipse;whiteSpace=wrap;html=1;aspect=fixed;fillColor=#008a00;fontColor=#ffffff;strokeColor=#005700;" vertex="1" parent="1">
          <mxGeometry x="590" y="120" width="10" height="10" as="geometry" />
        </mxCell>
        <mxCell id="oBg4tUfflhUF-vRY5D5m-41" value="" style="ellipse;whiteSpace=wrap;html=1;aspect=fixed;fillColor=#008a00;fontColor=#ffffff;strokeColor=#005700;" vertex="1" parent="1">
          <mxGeometry x="620" y="190" width="10" height="10" as="geometry" />
        </mxCell>
        <mxCell id="oBg4tUfflhUF-vRY5D5m-42" value="" style="ellipse;whiteSpace=wrap;html=1;aspect=fixed;fillColor=#008a00;fontColor=#ffffff;strokeColor=#005700;" vertex="1" parent="1">
          <mxGeometry x="620" y="140" width="10" height="10" as="geometry" />
        </mxCell>
        <mxCell id="oBg4tUfflhUF-vRY5D5m-43" value="" style="ellipse;whiteSpace=wrap;html=1;aspect=fixed;fillColor=#008a00;fontColor=#ffffff;strokeColor=#005700;" vertex="1" parent="1">
          <mxGeometry x="630" y="170" width="10" height="10" as="geometry" />
        </mxCell>
        <mxCell id="oBg4tUfflhUF-vRY5D5m-44" value="" style="ellipse;whiteSpace=wrap;html=1;aspect=fixed;fillColor=#f0a30a;fontColor=#000000;strokeColor=#BD7000;" vertex="1" parent="1">
          <mxGeometry x="540" y="220" width="10" height="10" as="geometry" />
        </mxCell>
        <mxCell id="oBg4tUfflhUF-vRY5D5m-46" value="" style="endArrow=classic;html=1;rounded=0;" edge="1" parent="1">
          <mxGeometry width="50" height="50" relative="1" as="geometry">
            <mxPoint x="545" y="220" as="sourcePoint" />
            <mxPoint x="565" y="200" as="targetPoint" />
          </mxGeometry>
        </mxCell>
        <mxCell id="oBg4tUfflhUF-vRY5D5m-48" value="" style="endArrow=classic;html=1;rounded=0;exitX=1;exitY=0.5;exitDx=0;exitDy=0;entryX=0;entryY=0.5;entryDx=0;entryDy=0;" edge="1" parent="1" source="oBg4tUfflhUF-vRY5D5m-44" target="oBg4tUfflhUF-vRY5D5m-35">
          <mxGeometry width="50" height="50" relative="1" as="geometry">
            <mxPoint x="555" y="230" as="sourcePoint" />
            <mxPoint x="575" y="210" as="targetPoint" />
          </mxGeometry>
        </mxCell>
        <mxCell id="oBg4tUfflhUF-vRY5D5m-49" value="" style="endArrow=classic;html=1;rounded=0;entryX=1;entryY=0.5;entryDx=0;entryDy=0;" edge="1" parent="1" target="oBg4tUfflhUF-vRY5D5m-24">
          <mxGeometry width="50" height="50" relative="1" as="geometry">
            <mxPoint x="545" y="230" as="sourcePoint" />
            <mxPoint x="585" y="220" as="targetPoint" />
          </mxGeometry>
        </mxCell>
        <mxCell id="oBg4tUfflhUF-vRY5D5m-50" value="" style="endArrow=classic;html=1;rounded=0;exitX=0;exitY=0;exitDx=0;exitDy=0;entryX=1;entryY=0;entryDx=0;entryDy=0;" edge="1" parent="1" source="oBg4tUfflhUF-vRY5D5m-44" target="oBg4tUfflhUF-vRY5D5m-22">
          <mxGeometry width="50" height="50" relative="1" as="geometry">
            <mxPoint x="575" y="250" as="sourcePoint" />
            <mxPoint x="595" y="230" as="targetPoint" />
          </mxGeometry>
        </mxCell>
        <mxCell id="oBg4tUfflhUF-vRY5D5m-51" value="" style="endArrow=classic;html=1;rounded=0;exitX=0.5;exitY=0;exitDx=0;exitDy=0;entryX=1;entryY=0.5;entryDx=0;entryDy=0;" edge="1" parent="1" source="oBg4tUfflhUF-vRY5D5m-44" target="oBg4tUfflhUF-vRY5D5m-21">
          <mxGeometry width="50" height="50" relative="1" as="geometry">
            <mxPoint x="585" y="260" as="sourcePoint" />
            <mxPoint x="605" y="240" as="targetPoint" />
          </mxGeometry>
        </mxCell>
      </root>
    </mxGraphModel>
  </diagram>
</mxfile>
